<svg width="65" height="65" viewBox="0 0 65 65" fill="none" xmlns="http://www.w3.org/2000/svg">
<g id="Application" clip-path="url(#clip0_2347_655)">
<g id="Vector">
<path d="M61.334 4H3.33398C1.5064 4 0.333984 5.15888 0.333984 7V52C0.333984 53.8411 1.5064 55 3.33398 55H24.334L22.334 62C21.9381 63.4187 22.8719 65 24.334 65H40.334C41.7961 65 42.7298 63.4187 42.334 62L40.334 55H61.334C63.1616 55 64.334 53.8411 64.334 52V7C64.334 5.15888 63.1616 4 61.334 4Z" fill="#CBE3FA"/>
</g>
<g id="Vector_2">
<path d="M61.334 4C63.1623 4 64.334 5.17172 64.334 7V8C64.334 8.91407 63.2481 10 62.334 10H45.334C24.615 10 8.17067 25.4863 7.33398 46C7.29771 46.8901 6.22488 48 5.33398 48H0.333984V7C0.333984 5.17172 1.50571 4 3.33398 4H61.334Z" fill="#EEF7FF"/>
</g>
<g id="Vector_3">
<path d="M0.333984 48V52C0.333984 53.8771 1.5064 55 3.33398 55H24.334L22.334 62C21.9381 63.4464 22.8719 65 24.334 65H40.334C41.7961 65 42.7298 63.4464 42.334 62L40.334 55H61.334C63.1616 55 64.334 53.8771 64.334 52V48H0.333984Z" fill="#B5D5F5"/>
</g>
<g id="Vector_4">
<path d="M25.3348 65H24.3348C22.8019 65 21.9198 63.4586 22.3348 62L24.3348 55H30.3348L28.3348 62C27.7619 64.0134 26.8705 65 25.3348 65Z" fill="#CBE3FA"/>
</g>
<g id="Vector_5">
<path d="M7.33398 50V53C7.33398 53.9278 6.26176 55 5.33398 55H3.33398C1.47828 55 0.333984 53.8557 0.333984 52V48H5.33398C6.26176 48 7.33398 49.0722 7.33398 50Z" fill="#CBE3FA"/>
</g>
<g id="Vector_6">
<path d="M40.3335 57H25.3335C24.5857 57 24.1306 56.638 24.3335 56V55H41.3335V56C41.5365 56.638 41.0814 57 40.3335 57Z" fill="#9EC7F0"/>
</g>
<g id="Vector_7">
<path d="M45.334 41C45.3518 41 40.3521 39.0063 40.334 39C37.8905 38.159 36.334 35.4854 36.334 33C40.3304 31.3674 43.334 27.5686 43.334 23C45.0802 23 46.334 21.437 46.334 20V10C46.3381 5.14179 42.2448 1.0041 37.334 1H29.334C25.6982 0.998634 22.6871 3.66101 21.334 7C19.6669 6.99863 18.334 8.351 18.334 10V20C18.3326 21.4987 19.8026 22.9986 21.334 23C21.334 27.9664 24.4569 31.3987 28.334 33C28.3237 35.5016 26.7803 38.1579 24.334 39C24.3184 39.0053 19.2935 41 19.334 41C16.9211 41.8334 15.334 43.4561 15.334 46V48H49.334V46C49.334 43.4561 47.7469 41.8334 45.334 41Z" fill="#FFEBD2"/>
</g>
<g id="Vector_8">
<path d="M34.334 32C35.6528 32.1568 35.6504 33.8261 34.334 34C27.319 34.9262 21.334 29.5289 21.334 23V17C21.334 16.6579 21.9937 16.1176 22.334 16C22.0789 16.1215 22.6032 15.9055 22.334 16C23.0908 15.6393 24.334 16.1988 24.334 17V21C24.3341 26.485 28.6108 31.3193 34.334 32Z" fill="#FFF3E4"/>
</g>
<g id="Vector_9">
<path d="M36.3348 36C34.0242 36.8799 31.8218 36.9476 29.3348 36C28.7906 35.7926 28.2218 35.6231 28.3348 35C28.4133 34.5672 28.3324 34.4523 28.3348 34C31.085 35.2611 34.5646 35.2563 37.3348 34C37.3449 34.1181 37.2031 34.2839 37.3348 35C37.4492 35.6219 36.8781 35.7931 36.3348 36Z" fill="#FFD9AD"/>
</g>
<g id="Vector_10">
<path d="M46.334 10V20C46.334 21.4328 45.1038 23 43.334 23V18C43.334 17.5182 42.8202 16.9552 42.334 17C36.5947 17.5297 31.6812 16.0065 27.334 13C26.923 12.7158 25.5676 12.5617 25.334 13C24.4608 14.6387 23.0473 16.3757 21.334 17C21.0053 17.1198 21.334 16.6542 21.334 17V23C19.7873 22.9986 18.3326 21.4988 18.334 20V10C18.334 8.35089 19.6502 6.99863 21.334 7C22.7007 3.66079 25.6618 0.998634 29.334 1H37.334C42.294 1.0041 46.3381 5.14147 46.334 10Z" fill="#585966"/>
</g>
<g id="Vector_11">
<path d="M38.334 0.999932C40.1372 1.05868 40.1382 3.989 38.334 3.99993C37.3123 4.00622 35.8081 4.01168 34.334 3.99993C30.8555 3.97247 27.8149 5.95041 26.334 8.99993C26.1913 9.29367 25.6591 8.94515 25.334 8.99993C23.8993 9.24134 22.334 10.5252 22.334 11.9999V15.9999C22.334 16.4098 22.7561 16.8436 22.334 16.9999C22.0047 17.1188 21.334 16.6541 21.334 16.9999V22.9999C19.7886 22.9986 18.3326 21.4987 18.334 19.9999V9.99993C18.334 8.35091 19.6517 6.99857 21.334 6.99993C22.6995 3.66091 26.665 0.998566 30.334 0.999932C30.334 0.999932 38.2363 0.996789 38.334 0.999932Z" fill="#6E6F80"/>
</g>
<g id="Vector_12">
<path d="M49.334 46V48H15.334V46C15.334 43.5244 16.9211 41.811 19.334 41C19.3003 41 24.3145 39.0065 24.334 39C25.1634 38.7221 25.7266 38.5597 26.334 38C27.912 44.0361 36.7546 44.0428 38.334 38C38.9413 38.5584 39.5045 38.7221 40.334 39C40.3477 39.0045 45.3477 41 45.334 41C47.7469 41.8112 49.334 43.5244 49.334 46Z" fill="#FF6D7A"/>
</g>
<g id="Vector_13">
<path d="M27.334 39C27.656 39.5802 26.9875 40.7863 26.334 41C26.3194 41.0048 23.3486 42 23.334 42C20.1029 43.0622 19.4805 45.5755 19.334 47C19.2778 47.5469 18.9132 48 18.334 48H15.334V46C15.334 43.5243 16.8669 41.811 19.334 41C19.2996 41 24.3141 39.0065 24.334 39C25.182 38.7221 25.713 38.5598 26.334 38C26.4709 38.5135 27.0977 38.574 27.334 39Z" fill="#FF8C95"/>
</g>
<g id="Vector_14">
<path d="M41.3349 34.9999C40.372 34.9999 39.6582 33.7115 40.3349 32.9999C42.4735 30.7506 44.7172 28.048 45.3349 24.9999C45.4573 24.396 45.7379 23.8758 46.3349 23.9999C46.9316 24.1238 47.4573 24.396 47.3349 24.9999C46.6331 28.4624 44.7633 32.4457 42.3349 34.9999C42.1186 35.2276 41.6243 34.9999 41.3349 34.9999Z" fill="#585966"/>
</g>
<g id="Vector_15">
<path d="M49.334 19V24C49.334 25.3054 47.7336 25.9461 46.334 26C46.2323 26.0039 46.7151 26 44.334 26C43.6713 26 43.334 25.6116 43.334 25V18C43.334 17.3884 43.6713 17 44.334 17H46.334C47.7887 17 49.334 17.6575 49.334 19Z" fill="#80AAFF"/>
</g>
<g id="Vector_16">
<path d="M46.334 18.9999C45.5201 18.9999 45.334 19.4493 45.334 19.9999V24.9999C45.334 25.4124 44.7721 25.9999 44.334 25.9999C43.6865 25.9999 43.334 25.6097 43.334 24.9999V17.9999C43.334 17.3901 43.6865 16.9999 44.334 16.9999C46.4856 16.9999 45.9991 16.9408 46.334 16.9999C47.2675 17.1644 47.2836 18.9999 46.334 18.9999Z" fill="#9CBCFF"/>
</g>
<g id="Vector_17">
<path d="M21.334 18V25C21.334 25.6117 20.9967 26 20.334 26H18.334C16.8793 26 15.334 25.3428 15.334 24V19C15.334 17.6572 16.8793 17 18.334 17H20.334C20.9967 17 21.334 17.3883 21.334 18Z" fill="#80AAFF"/>
</g>
<g id="Vector_18">
<path d="M21.334 18C21.334 18.3006 20.6653 19 20.334 19C18.7225 19 18.3217 19.7399 18.334 21C18.3341 21.0083 18.341 22.7665 18.334 24C18.325 25.58 15.334 25.7378 15.334 24V19C15.334 17.6803 16.8793 17 18.334 17H20.334C20.9967 17.0001 21.334 17.3988 21.334 18Z" fill="#9CBCFF"/>
</g>
</g>
<defs>
<clipPath id="clip0_2347_655">
<rect width="64" height="64.0014" fill="white" transform="translate(0.333984 0.998535)"/>
</clipPath>
</defs>
</svg>
