<svg width="128" height="128" viewBox="0 0 128 128" fill="none" xmlns="http://www.w3.org/2000/svg">
<g id="&#208;&#157;&#208;&#190;&#209;&#128;&#208;&#188;&#208;&#176;&#209;&#130;&#208;&#184;&#208;&#178;&#208;&#189;&#209;&#139;&#208;&#181; &#208;&#180;&#208;&#190;&#208;&#186;&#209;&#131;&#208;&#188;&#208;&#181;&#208;&#189;&#209;&#130;&#209;&#139;">
<g id="Group">
<g id="Group_2">
<g id="Group_3">
<g id="Vector">
<path d="M122 30H6C2.58477 30 0 32.5642 0 36V105C0 108.436 2.58477 111 6 111H122C125.415 111 128 108.436 128 105V36C128 32.5642 125.415 30 122 30Z" fill="#717D94"/>
</g>
</g>
<g id="Group_4">
<path id="Vector_2" d="M70 101H58V111H70V101Z" fill="#717D94"/>
</g>
<g id="Group_5">
<g id="Vector_3">
<path d="M119 94V100C119 101.104 118.135 102 117 102H10C8.86482 102 8 101.104 8 100V94L20 88L70 90L111 88L119 94Z" fill="#E6BE8A"/>
</g>
</g>
<g id="Group_6">
<g id="Vector_4">
<path d="M11 98.0001C28.0434 90.9558 47.228 91.0987 64 99.0001V24.0001C46.675 15.8381 26.4481 16.2148 9 24.0001C8.24919 24.3352 8 25.1771 8 26.0001V96.0001C8 97.5002 9.6153 98.5725 11 98.0001Z" fill="#FFEBB7"/>
</g>
</g>
<g id="Group_7">
<g id="Vector_5">
<path d="M64 99.0001C80.772 91.0985 99.9566 90.9558 117 98.0001C118.385 98.5725 120 97.5002 120 96.0001V26.0001C120 25.1771 119.751 24.3352 119 24.0001C101.552 16.2148 81.3247 15.8381 64 24.0001V99.0001Z" fill="#FFD788"/>
</g>
</g>
<g id="Group_8">
<g id="Group_9">
<g id="Vector_6">
<path d="M71.9996 85.0003C71.1616 85.0003 70.2629 83.9111 69.9996 83.0003C69.6748 81.8767 69.9635 81.3532 70.9996 81.0003C72.9912 80.3224 75.9485 79.4657 77.9996 79.0003C79.0609 78.7588 79.7767 79.8453 79.9996 81.0003C80.2226 82.1529 79.0648 82.7588 77.9996 83.0003C76.0735 83.4377 74.8681 84.3643 72.9996 85.0003C72.8035 85.0666 72.1938 85.0003 71.9996 85.0003Z" fill="#717D94"/>
</g>
</g>
</g>
<g id="Group_10">
<g id="Group_11">
<g id="Vector_7">
<path d="M112 85.0004C111.797 85.0004 111.205 85.0617 111 85.0004C103.223 82.6742 95.1124 81.385 86.9999 82.0004C85.8486 82.0789 85.0903 81.0807 84.9999 80.0004C84.9112 78.9192 85.8648 78.0865 86.9999 78.0004C95.6578 77.3523 104.72 78.5236 113 81.0004C114.085 81.3252 114.34 82.9661 114 84.0004C113.724 84.839 112.877 85.0004 112 85.0004Z" fill="#717D94"/>
</g>
</g>
</g>
<g id="Group_12">
<g id="Group_13">
<g id="Vector_8">
<path d="M111 77C110.799 77 110.202 77.0615 110 77C97.7533 73.2792 85.2464 73.2792 72.9998 77C71.9231 77.3258 70.3335 77.036 69.9998 76C69.6641 74.9631 69.9289 73.3258 70.9998 73C84.0452 69.0371 98.9545 69.0371 112 73C113.071 73.3258 113.336 74.9631 113 76C112.727 76.8409 111.866 77 111 77Z" fill="#717D94"/>
</g>
</g>
</g>
<g id="Group_14">
<g id="Group_15">
<g id="Vector_9">
<path d="M72.0008 68C71.1213 68 70.2771 67.8526 70.0008 67C69.6599 65.9483 69.9134 64.3303 71.0008 64C78.6041 61.6939 87.0525 60.6392 95.0008 61C96.1385 61.0526 97.0553 61.8986 97.0008 63C96.9484 64.1034 96.1586 65.0459 95.0008 65C87.5426 64.6599 80.1383 65.8342 73.0008 68C72.7952 68.0621 72.2045 68 72.0008 68Z" fill="#717D94"/>
</g>
</g>
</g>
<g id="Group_16">
<g id="Group_17">
<g id="Vector_10">
<path d="M111 68C110.805 68 110.196 68.0624 110 68C107.505 67.2066 105.582 66.4604 103 66C101.926 65.8076 100.809 65.0871 101 64C101.189 62.9138 101.928 61.8076 103 62C105.75 62.4908 109.341 63.1549 112 64C113.039 64.3307 113.326 65.947 113 67C112.735 67.8538 111.841 68 111 68Z" fill="#717D94"/>
</g>
</g>
</g>
<g id="Group_18">
<g id="Group_19">
<g id="Vector_11">
<path d="M111 60C110.799 60 110.202 60.0615 110 60C97.7533 56.2786 85.2464 56.2786 72.9998 60C71.9231 60.3238 70.3335 60.0351 69.9998 59C69.6641 57.9629 69.9289 56.3257 70.9998 56C84.0452 52.0365 98.9545 52.0365 112 56C113.071 56.3257 113.336 57.9629 113 59C112.727 59.841 111.866 60 111 60Z" fill="#717D94"/>
</g>
</g>
</g>
<g id="Group_20">
<g id="Group_21">
<g id="Vector_12">
<path d="M71.9991 52.0002C71.1031 52.0002 70.2806 50.9104 69.9991 50.0002C69.6518 48.8775 69.8913 48.3529 70.9991 48.0002C75.233 46.6537 80.5866 45.4956 84.9991 45.0002C86.1706 44.8577 86.8718 45.833 86.9991 47.0002C87.1264 48.1698 86.154 48.8713 84.9991 49.0002C80.8578 49.4663 76.9717 50.736 72.9991 52.0002C72.7894 52.0665 72.2067 52.0002 71.9991 52.0002Z" fill="#717D94"/>
</g>
</g>
</g>
<g id="Group_22">
<g id="Group_23">
<g id="Vector_13">
<path d="M112 52.0002C111.795 52.0002 111.207 52.0632 111 52.0002C105.134 50.2107 99.1508 49.0938 93.0003 49.0002C91.8517 48.9826 90.9821 48.1141 91.0003 47.0002C91.0185 45.8874 91.9107 44.9352 93.0003 45.0002C99.5505 45.1006 106.752 46.0948 113 48.0002C114.094 48.334 114.343 49.9376 114 51.0002C113.72 51.8619 112.885 52.0002 112 52.0002Z" fill="#717D94"/>
</g>
</g>
</g>
<g id="Group_24">
<g id="Group_25">
<g id="Vector_14">
<path d="M71.9993 44C71.1238 44 70.2744 43.8194 69.9993 43C69.66 41.9893 69.9168 40.3175 70.9993 40C79.9604 37.3745 89.6565 36.0305 98.9993 37C100.128 37.1161 101.124 38.9471 100.999 40C100.875 41.052 100.15 41.1369 98.9993 41C90.2349 40.0933 81.4123 41.5337 72.9993 44C72.7947 44.0599 72.2022 44 71.9993 44Z" fill="#717D94"/>
</g>
</g>
</g>
<g id="Group_26">
<g id="Group_27">
<g id="Vector_15">
<path d="M111 44C110.807 44 110.195 44.0596 110 44C108.756 43.619 108.276 43.3025 107 43C105.95 42.7504 104.743 41.0233 105 40C105.256 38.9766 105.94 38.7523 107 39C108.356 39.3223 110.674 39.5947 112 40C113.031 40.3156 113.323 41.9952 113 43C112.738 43.8148 111.834 44 111 44Z" fill="#717D94"/>
</g>
</g>
</g>
<g id="Group_28">
<g id="Group_29">
<g id="Vector_16">
<path d="M72.0005 35.0001C71.1664 35.0001 70.2625 34.8148 70.0005 34.0001C69.6772 32.9946 69.9673 31.3147 71.0005 31.0001C72.3474 30.5885 74.6671 30.3157 76.0005 30.0001C77.0452 29.7497 77.7441 29.977 78.0005 31.0001C78.2569 32.0233 77.0508 33.7516 76.0005 34.0001C74.7494 34.2961 74.267 34.6138 73.0005 35.0001C72.8053 35.0595 72.1937 35.0001 72.0005 35.0001Z" fill="#717D94"/>
</g>
</g>
</g>
<g id="Group_30">
<g id="Group_31">
<g id="Vector_17">
<path d="M112.001 35C111.798 35 111.205 35.0599 111.001 35C102.586 32.5337 93.7672 31.0943 85.0008 32C83.864 32.1292 83.1252 32.0508 83.0008 31C82.8764 29.9471 83.8723 28.1161 85.0008 28C94.3394 27.0305 104.038 28.3745 113.001 31C114.083 31.3175 114.34 32.9893 114.001 34C113.726 34.8194 112.876 35 112.001 35Z" fill="#717D94"/>
</g>
</g>
</g>
<g id="Group_32">
<g id="Group_33">
<g id="Vector_18">
<path d="M16.9996 85.0003C16.1616 85.0003 15.2632 83.9111 14.9996 83.0003C14.6748 81.8767 14.9635 81.3532 15.9996 81.0003C17.9912 80.3224 20.9485 79.4657 22.9996 79.0003C24.0626 78.7588 24.7767 79.8453 24.9996 81.0003C25.2226 82.1529 24.0648 82.7588 22.9996 83.0003C21.0735 83.4377 19.8681 84.3643 17.9996 85.0003C17.8035 85.0666 17.1938 85.0003 16.9996 85.0003Z" fill="#B4B6BC"/>
</g>
</g>
</g>
<g id="Group_34">
<g id="Group_35">
<g id="Vector_19">
<path d="M55.9999 85.0004C55.7966 85.0004 55.2049 85.0617 54.9999 85.0004C47.2253 82.6742 39.1124 81.385 30.9999 82.0004C29.8326 82.0789 29.0903 81.0807 28.9999 80.0004C28.9112 78.9192 29.8648 78.0865 30.9999 78.0004C39.6578 77.3523 48.7183 78.5236 56.9999 81.0004C58.0846 81.3252 58.3402 82.9661 57.9999 84.0004C57.724 84.839 56.8773 85.0004 55.9999 85.0004Z" fill="#B4B6BC"/>
</g>
</g>
</g>
<g id="Group_36">
<g id="Group_37">
<g id="Vector_20">
<path d="M55.9998 77C55.7992 77 55.2023 77.0615 54.9998 77C42.7533 73.2792 30.2464 73.2792 17.9998 77C16.919 77.3258 15.3335 77.036 14.9998 76C14.6641 74.9631 14.9289 73.3258 15.9998 73C29.0452 69.0371 43.9545 69.0371 56.9998 73C58.0707 73.3258 58.3358 74.9631 57.9998 76C57.7275 76.8409 56.866 77 55.9998 77Z" fill="#B4B6BC"/>
</g>
</g>
</g>
<g id="Group_38">
<g id="Group_39">
<g id="Vector_21">
<path d="M17.0008 68C16.1213 68 15.2773 67.8526 15.0008 67C14.6599 65.9483 14.9134 64.3303 16.0008 64C23.6041 61.6939 32.0584 60.6392 40.0008 61C41.1385 61.0526 42.0553 61.8986 42.0008 63C41.9463 64.1034 41.1465 65.0459 40.0008 65C32.5405 64.6599 25.1383 65.8342 18.0008 68C17.7952 68.0621 17.2045 68 17.0008 68Z" fill="#B4B6BC"/>
</g>
</g>
</g>
<g id="Group_40">
<g id="Group_41">
<g id="Vector_22">
<path d="M55 68C54.8053 68 54.1964 68.0624 54 68C51.5052 67.2066 49.5817 66.4604 47 66C45.9259 65.8076 44.809 65.0871 45 64C45.1871 62.9138 45.9299 61.8076 47 62C49.7495 62.4908 53.341 63.1549 56 64C57.0392 64.3307 57.326 65.947 57 67C56.7354 67.8538 55.8406 68 55 68Z" fill="#B4B6BC"/>
</g>
</g>
</g>
<g id="Group_42">
<g id="Group_43">
<g id="Vector_23">
<path d="M16.9992 60.0003C16.1293 60.0003 15.2728 59.8683 14.9992 59.0003C14.6621 57.9296 14.9237 56.3366 15.9992 56.0003C27.6143 52.3738 40.1768 52.1368 51.9992 55.0003C53.0967 55.2663 54.2666 55.9098 53.9992 57.0003C53.7318 58.0898 52.0888 59.2602 50.9992 59.0003C39.897 56.3083 28.9037 56.5948 17.9992 60.0003C17.7957 60.0636 17.2007 60.0003 16.9992 60.0003Z" fill="#B4B6BC"/>
</g>
</g>
</g>
<g id="Group_44">
<g id="Group_45">
<g id="Vector_24">
<path d="M16.9991 52.0002C16.1031 52.0002 15.2808 50.9104 14.9991 50.0002C14.6518 48.8775 14.8913 48.3529 15.9991 48.0002C20.233 46.6537 25.5866 45.4956 29.9991 45.0002C31.1603 44.8577 31.8718 45.833 31.9991 47.0002C32.1264 48.1698 31.154 48.8713 29.9991 49.0002C25.8578 49.4663 21.9717 50.736 17.9991 52.0002C17.7894 52.0665 17.2067 52.0002 16.9991 52.0002Z" fill="#B4B6BC"/>
</g>
</g>
</g>
<g id="Group_46">
<g id="Group_47">
<g id="Vector_25">
<path d="M52.0003 50.9999C51.8357 50.9999 51.1667 51.0394 51.0003 50.9999C46.3306 49.8859 41.804 49.0734 37.0003 48.9999C35.8359 48.9819 34.9819 48.1393 35.0003 46.9999C35.0187 45.8616 35.7885 44.9334 37.0003 44.9999C42.1184 45.0796 47.0259 45.8134 52.0003 46.9999C53.1318 47.27 54.276 47.8928 54.0003 48.9999C53.7654 49.9431 52.9485 50.9999 52.0003 50.9999Z" fill="#B4B6BC"/>
</g>
</g>
</g>
<g id="Group_48">
<g id="Group_49">
<g id="Vector_26">
<path d="M16.9993 44C16.1238 44 15.2747 43.8194 14.9993 43C14.66 41.9893 14.9168 40.3175 15.9993 40C24.9625 37.3745 34.6586 36.0305 43.9993 37C45.1281 37.1161 46.124 38.9471 45.9993 40C45.8749 41.052 45.142 41.1369 43.9993 41C35.2349 40.0933 26.4123 41.5337 17.9993 44C17.7947 44.0599 17.2022 44 16.9993 44Z" fill="#B4B6BC"/>
</g>
</g>
</g>
<g id="Group_50">
<g id="Group_51">
<g id="Vector_27">
<path d="M17.0005 35.0001C16.1664 35.0001 15.2628 34.8148 15.0005 34.0001C14.6772 32.9946 14.9673 31.3147 16.0005 31.0001C17.3474 30.5885 19.6671 30.3157 21.0005 30.0001C22.0432 29.7497 22.7441 29.977 23.0005 31.0001C23.2569 32.0233 22.0508 33.7516 21.0005 34.0001C19.7494 34.2961 19.267 34.6138 18.0005 35.0001C17.8053 35.0595 17.1937 35.0001 17.0005 35.0001Z" fill="#B4B6BC"/>
</g>
</g>
</g>
<g id="Group_52">
<g id="Group_53">
<g id="Vector_28">
<path d="M51.9991 34.0001C51.8371 34.0001 51.1628 34.0375 50.9991 34.0001C43.7539 32.3338 36.4082 32.2248 28.9991 33.0001C27.8613 33.132 27.1245 32.0744 26.9991 31.0001C26.8736 29.9256 27.8615 28.1185 28.9991 28.0001C36.8878 27.1703 44.2844 28.2269 51.9991 30.0001C53.1125 30.2563 54.2703 30.9495 53.9991 32.0001C53.7682 32.8948 52.9321 34.0001 51.9991 34.0001Z" fill="#B4B6BC"/>
</g>
</g>
</g>
<g id="Group_54">
<g id="Vector_29">
<path d="M52 56C52.0003 56.8147 53.3358 57.452 54 57L58 54L62 57C62.6642 57.452 64 56.815 64 56V24C64 23.1939 63.7217 22.3275 63 22C59.8872 20.5869 56.2493 19.8762 53 19C52.366 18.8291 51.9998 19.3307 52 20V56Z" fill="#717D94"/>
</g>
</g>
</g>
</g>
</g>
</svg>
