<svg width="64" height="64" viewBox="0 0 64 64" fill="none" xmlns="http://www.w3.org/2000/svg">
<g id="Fire">
<g id="Group">
<g id="Vector">
<path d="M1 56.9699H13V50.9731H1C0.249079 50.9731 0 51.2135 0 51.9726V55.9704C0 56.7294 0.249079 56.9699 1 56.9699Z" fill="#B5ADB6"/>
</g>
<g id="Vector_2">
<path d="M63 56.9699H51V50.9731H63C63.7508 50.9731 64 51.2135 64 51.9726V55.9704C64 56.7294 63.7509 56.9699 63 56.9699Z" fill="#B5ADB6"/>
</g>
<g id="Vector_3">
<path d="M63 50.9731H59C59.8148 50.9731 60 51.2135 60 51.9726V55.9704C60 56.7294 59.815 56.9699 59 56.9699H63C63.8148 56.9699 64 56.7295 64 55.9704V51.9726C64 51.2135 63.815 50.9731 63 50.9731Z" fill="#A79BA7"/>
</g>
<g id="Group_2">
<g id="Vector_4">
<path d="M25 58.969H14C12.8033 58.969 12 58.1506 12 56.9701V48.9745C12 47.7942 12.8032 46.9756 14 46.9756H25V58.969Z" fill="#A79BA7"/>
</g>
</g>
<g id="Vector_5">
<path d="M39 58.969H50C51.1967 58.969 52 58.1506 52 56.9701V48.9745C52 47.7942 51.1968 46.9756 50 46.9756H39V58.969Z" fill="#A79BA7"/>
</g>
<g id="Vector_6">
<path d="M50 46.9756H47C48.1154 46.9756 49 47.7941 49 48.9745V56.9701C49 58.1505 48.1155 58.969 47 58.969H50C51.1154 58.969 52 58.1506 52 56.9701V48.9745C52 47.7941 51.1154 46.9756 50 46.9756Z" fill="#918291"/>
</g>
<g id="Vector_7">
<path d="M45.9991 39.9794C38.5602 39.1429 26.4381 39.1429 18.9991 39.9794C11.7465 40.7946 10.992 33.1178 11.9991 30.9843C13.0061 28.851 14.8987 26.0249 14.9991 23.9881C15.0525 22.9158 15.6696 21.1856 15.9991 19.9903C16.1606 19.4058 16.706 19.4535 16.9991 19.9903C17.653 21.1894 18.4923 22.4293 18.9991 22.9887C19.119 23.1204 19.0148 22.1636 18.9991 21.9892C18.7229 18.9102 20.7016 15.3056 21.9991 12.9941C22.3105 12.441 23.8818 12.3758 23.9991 12.9941C24.3443 14.8289 24.6266 16.2018 24.9991 16.992C24.947 17.15 25.0694 17.1424 24.9991 16.992C25.6023 15.1283 27.9764 13.4257 28.9991 11.9947C29.4564 11.355 29.3946 10.322 29.9991 8.99631C30.3613 8.19743 30.719 6.65768 30.9991 5.99795C31.2323 5.4473 33.7659 5.4473 33.9991 5.99795C34.743 7.75386 35.2669 10.9687 35.9991 11.9947C37.0218 13.4257 39.3959 15.1283 39.9991 16.992C39.9288 17.1424 40.0512 17.15 39.9991 16.992C40.1998 16.5655 40.7021 15.8383 40.9991 14.993C41.2532 14.2744 40.8403 13.837 40.9991 12.9941C41.1163 12.3758 42.6876 12.441 42.9991 12.9941C44.2967 15.3056 46.2753 18.9102 45.9991 21.9892C45.9834 22.1636 45.8792 23.1204 45.9991 22.9887C46.5058 22.4293 47.3451 21.1894 47.9991 19.9903C48.2923 19.4535 48.8376 19.4059 48.9991 19.9903C49.3287 21.1856 49.9457 22.9158 49.9991 23.9881C50.0994 26.0249 51.992 28.8509 52.9991 30.9843C54.006 33.1178 53.2518 40.7946 45.9991 39.9794Z" fill="#FE646F"/>
</g>
<g id="Group_3">
<g id="Vector_8">
<path d="M38 17.9911H36C35.3358 17.9911 35.2476 17.618 35 16.9916C34.3105 15.2403 32.9016 14.3237 32 12.9938C31.5555 12.3365 30.5878 11.3576 30 9.99542C30.353 9.17454 30.727 6.67549 31 5.9976C31.2273 5.43179 31.7727 5.43179 32 5.9976C32.725 7.80185 34.2863 11.9396 35 12.9938C35.9968 14.4642 37.412 16.076 38 17.9911Z" fill="#FD4755"/>
</g>
<g id="Vector_9">
<path d="M45 21.9888H43C42.1036 21.9888 42.0381 20.8486 42 19.9899C41.9146 18.076 40.8425 16.8386 40 14.9926C40.2559 14.2711 40.84 13.8399 41 12.9937C41.1181 12.3729 41.6862 11.439 42 11.9942C43.3071 14.3149 45.2782 18.8976 45 21.9888Z" fill="#FD4755"/>
</g>
<g id="Vector_10">
<path d="M52 31.9836C51.095 29.707 49.0905 25.1616 49 22.9885C48.9524 21.8443 48.2958 21.2654 48 19.9901C47.8551 19.3654 47.2628 18.4185 47 18.9907C46.5926 19.8778 46.4232 21.3759 46 21.9891C46.1152 22.6609 45.9773 22.4433 46 22.9885C46.0905 25.1616 47.095 29.707 48 31.9836C48.7817 33.9501 49.1672 39.9718 45 40.9787C45.21 41.004 45.7975 40.9517 46 40.9787C52.5157 41.8489 52.905 34.2602 52 31.9836Z" fill="#FD4755"/>
</g>
<g id="Vector_11">
<path d="M16 40.9793C16.7088 41.1666 17.0427 41.1191 18 40.9793C21.2028 40.5117 25.7964 40.0316 30 39.9793C25.0318 39.9183 19.9258 40.4603 16 40.9793Z" fill="#FD4755"/>
</g>
</g>
<g id="Vector_12">
<path d="M31.0003 19.9902H30.0003C29.5 20.9655 28.8192 21.8943 28.0003 22.9886C26.7207 24.6986 25.5332 26.3075 26.0003 28.9853C26.6462 32.6873 32.0003 31.9837 32.0003 31.9837C32.0003 31.9837 35.3544 32.6873 36.0003 28.9853C36.4676 26.3075 31.0003 19.9902 31.0003 19.9902Z" fill="#FEE97D"/>
</g>
<g id="Vector_13">
<path d="M35 22.9883C33.8452 21.3014 32.5714 20.4017 32 18.9905C31.6905 18.226 31.297 18.2204 31 18.9905C30.8075 19.4896 30.284 19.3958 30 19.99C30.498 21.0365 31.2633 21.9122 32 22.9883C33.2028 24.7456 34.4462 26.2572 34 28.9851C33.6172 31.3251 31.4146 31.8237 30 31.9834C30.865 32.0811 32 31.9834 32 31.9834C32 31.9834 36.3831 32.7562 37 28.9851C37.4462 26.2571 36.2028 24.7454 35 22.9883Z" fill="#FCDD5B"/>
</g>
<g id="Vector_14">
<path d="M47 45.9761C47 45.9761 44.6296 61.9674 33 61.9674C23.8742 61.9674 16 54.8079 16 45.9761C16 37.1444 23.8742 29.9849 33 29.9849C45.6098 29.9849 47 45.9761 47 45.9761Z" fill="#99E6FC"/>
</g>
<g id="Vector_15">
<path d="M32 29.9848C31.3537 29.9848 30.6263 29.9114 30 29.9848C37.9862 30.9215 44 37.8033 44 45.976C44 54.1488 37.9862 61.0304 30 61.9673C30.6264 62.0408 31.3538 61.9673 32 61.9673C40.8865 61.9673 48 54.7898 48 45.976C48 37.1623 40.8865 29.9848 32 29.9848Z" fill="#62DBFB"/>
</g>
<g id="Vector_16">
<path d="M33 57.9698C32.3389 57.9698 31.6337 58.0694 31 57.9698C25.0275 57.0302 20 52.2277 20 45.9763C20 39.0618 25.1075 32.9834 32 32.9834C38.8925 32.9834 45 39.0618 45 45.9763C45 52.8909 37.546 56.4281 33 57.9698Z" fill="#F2FBFF"/>
</g>
<g id="Vector_17">
<path d="M32 32.9831C31.352 32.9831 30.6207 32.8816 30 32.9831C35.7678 33.9259 40 38.7795 40 44.9765C40 51.1736 35.7678 57.0266 30 57.9694C30.6206 58.0709 31.352 57.9694 32 57.9694C38.6695 57.9694 44 51.8404 44 44.9765C44 38.1126 38.6695 32.9831 32 32.9831Z" fill="#DFF6FD"/>
</g>
<g id="Group_4">
<g id="Vector_18">
<path d="M32 46.9756C31.4477 46.9756 31 46.4846 31 45.9762V39.9794C31 39.471 31.4477 38.98 32 38.98C32.5523 38.98 33 39.471 33 39.9794V45.9762C33 46.4846 32.5523 46.9756 32 46.9756Z" fill="#FE646F"/>
</g>
</g>
<path id="Vector_19" d="M32 53.9718C33.933 53.9718 36 51.9059 36 49.974C36 48.042 33.933 46.9756 32 46.9756C30.067 46.9756 29 48.042 29 49.974C29 51.9059 30.067 53.9718 32 53.9718Z" fill="#6C7FD8"/>
<g id="Group_5">
<g id="_x3C_Radial_Repeat_x3E__25_">
<g id="Group_6">
<g id="Vector_20">
<path d="M22.0003 42.9774C21.9051 42.9774 22.0957 43.0135 22.0003 42.9774L20.0003 41.978C19.5121 41.7939 18.8416 41.5454 19.0003 40.9785C19.1589 40.4116 19.5119 39.7947 20.0003 39.9791L22.0003 40.9785C22.4885 41.1626 23.159 41.4111 23.0003 41.978C22.8725 42.4339 22.3922 42.9774 22.0003 42.9774Z" fill="#918291"/>
</g>
</g>
</g>
<g id="_x3C_Radial_Repeat_x3E__24_">
<g id="Group_7">
<g id="Vector_21">
<path d="M27.0001 37.9802C26.6888 37.9802 25.1971 38.229 25.0001 37.9802L24.0001 35.9813C23.6732 35.5684 23.5503 34.2824 24.0001 33.9824C24.4498 33.6824 26.6734 33.5695 27.0001 33.9824L28.0001 35.9813C28.327 36.3943 28.4498 37.6802 28.0001 37.9802C27.8215 38.0995 27.2053 37.9802 27.0001 37.9802Z" fill="#918291"/>
</g>
</g>
</g>
<g id="_x3C_Radial_Repeat_x3E__23_">
<g id="Group_8">
<g id="Vector_22">
<path d="M32 35.9812C31.4477 35.9812 31 35.4874 31 34.9818V32.9829C31 32.4772 31.4477 31.9834 32 31.9834C32.5523 31.9834 33 32.4772 33 32.9829V34.9818C33 35.4874 32.5523 35.9812 32 35.9812Z" fill="#918291"/>
</g>
</g>
</g>
<g id="_x3C_Radial_Repeat_x3E__22_">
<g id="Group_9">
<g id="Vector_23">
<path d="M38.0001 37.9803C37.795 37.9803 37.1788 38.0994 37.0001 37.9803C36.5503 37.6803 36.6732 36.3943 37.0001 35.9814L38.0001 33.9825C38.3267 33.5695 40.5502 33.6822 41.0001 33.9825C41.4498 34.2825 41.327 35.5684 41.0001 35.9814L40.0001 37.9803C39.8031 38.2291 38.3113 37.9803 38.0001 37.9803Z" fill="#918291"/>
</g>
</g>
</g>
<g id="_x3C_Radial_Repeat_x3E__21_">
<g id="Group_10">
<g id="Vector_24">
<path d="M42.0003 42.9775C41.6085 42.9775 41.128 42.4342 41.0003 41.978C40.8416 41.4112 41.512 41.1627 42.0003 40.9786L44.0003 39.9791C44.4882 39.7946 44.8418 40.4116 45.0003 40.9786C45.159 41.5454 44.4887 41.7939 44.0003 41.978L42.0003 42.9775C42.0956 42.9775 41.905 43.0135 42.0003 42.9775Z" fill="#918291"/>
</g>
</g>
</g>
</g>
<g id="Vector_25">
<path d="M33 31.9834C25.5445 31.9834 19 38.5233 19 45.9758C19 53.4269 25.5444 58.9687 33 58.9687C40.4556 58.9687 46 53.427 46 45.9758C46 38.5233 40.4555 31.9834 33 31.9834ZM33 56.9698C26.6194 56.9698 21 52.3513 21 45.9758C21 39.599 26.6193 33.9823 33 33.9823C39.3806 33.9823 44 39.599 44 45.9758C44 52.3513 39.3806 56.9698 33 56.9698Z" fill="#B5ADB6"/>
</g>
<g id="Group_11">
<g id="Vector_26">
<path d="M37 6.99727C36.4477 6.99727 36 6.51846 36 5.99782V2.99945C36 2.47881 36.4477 2 37 2C37.5523 2 38 2.47881 38 2.99945V5.99782C38 6.51834 37.5523 6.99727 37 6.99727Z" fill="#FE646F"/>
</g>
</g>
<path id="Vector_27" d="M24 8.99598C24.5523 8.99598 25 8.54851 25 7.99653C25 7.44454 24.5523 6.99707 24 6.99707C23.4477 6.99707 23 7.44454 23 7.99653C23 8.54851 23.4477 8.99598 24 8.99598Z" fill="#FD4755"/>
</g>
</g>
</svg>
