<svg width="64" height="64" viewBox="0 0 64 64" fill="none" xmlns="http://www.w3.org/2000/svg">
<g id="Heart">
<g id="Group">
<g id="Vector">
<path d="M56 2H8C5.52325 2 3.51949 3.26324 2 4.98727L1 9.96605V40.8345C1 45.4209 3.42006 48.8005 8 48.8005H19C19.8247 48.8005 20.4168 50.208 21 50.792L31 60.7496H33C33.1193 60.6661 33.8936 60.8562 34 60.7496L43 50.792C43.5832 50.208 45.1753 49.7963 46 49.7963H56C60.5799 49.7963 64 46.4167 64 41.8302V9.96605C63.9999 5.37949 60.5799 2 56 2Z" fill="#DFEEFA"/>
</g>
<g id="Vector_2">
<path d="M20 50.7921L30 59.7539C30.8587 60.6155 32.038 61.424 33 60.7496L22 48.8006C21.0517 47.849 19.3414 47.8048 18 47.8048H8C4.62847 47.8048 2 44.2175 2 40.8345V4.9873C0.735197 6.42844 0 7.89482 0 9.96608V40.8345C0 45.3522 3.49767 49.7963 8 49.7963H18C18.8107 49.7962 19.4268 50.2168 20 50.7921Z" fill="#C9DFF7"/>
</g>
<g id="Group_2">
<g id="Vector_3">
<path d="M47.9999 20.9191C47.5083 16.4251 43.3987 13.2459 38.9999 12.953C36.3352 12.7757 33.7887 14.2463 31.9999 15.9403C31.6149 16.3048 31.3849 16.3048 30.9999 15.9403C29.211 14.2463 26.6645 12.7757 23.9999 12.953C22.9374 13.0238 21.9457 13.5291 20.9999 13.9488C18.0296 15.2665 15.9999 20.9191 15.9999 20.9191C14.9579 30.4459 27.2682 38.5587 30.9999 40.8342H33.9999C38.6508 37.8126 48.9489 29.597 47.9999 20.9191Z" fill="#FF2334"/>
</g>
<g id="Vector_4">
<path d="M17.0007 19.9233C17.2809 17.4665 19.129 15.4463 21.0007 13.9487C17.957 15.2473 15.383 18.5637 15.0007 21.9148C13.9314 31.2904 27.171 39.5905 31.0007 41.8299C31.6616 42.2163 32.3397 42.2163 33.0007 41.8299C33.3412 41.6308 33.5351 41.1242 34.0007 40.8341C31.5593 39.4806 15.8436 30.0688 17.0007 19.9233Z" fill="#FF5F7A"/>
</g>
</g>
</g>
</g>
</svg>
